<svg width="630.8199951171874px" height="124.439990234375px" xmlns="http://www.w3.org/2000/svg" viewBox="-65.40999755859372 12.780004882812499 630.8199951171874 124.439990234375" style="background: rgba(0, 0, 0, 0) none repeat scroll 0% 0%;" preserveAspectRatio="xMidYMid"><defs><filter id="editing-vr"><feFlood flood-color="#f00" flood-opacity="0.7" result="c1"></feFlood><feFlood flood-color="#00f" flood-opacity="0.7" result="c3"></feFlood><feComposite operator="in" in="c1" in2="SourceAlpha" result="text-c1"></feComposite><feComposite operator="in" in="c3" in2="SourceAlpha" result="text-c3"></feComposite><feOffset in="text-c1" dx="5" dy="-1" result="text1"></feOffset><feOffset in="text-c3" dx="-5" dy="1" result="text3"></feOffset><feBlend in="SourceGraphic" in2="text1" mode="multiply" result="text4"></feBlend><feBlend in="text4" in2="text3" mode="multiply"></feBlend></filter></defs><g filter="url(#editing-vr)"><g transform="translate(26.285280227661133, 104.439453125)"><path d="M26.05-29.57L26.05-29.57L26.05-29.57Q27.01-31.49 27.01-33.28L27.01-33.28L27.01-33.28Q27.01-35.07 26.82-36.06L26.82-36.06L26.82-36.06Q26.62-37.06 26.18-37.82L26.18-37.82L26.18-37.82Q25.22-39.49 23.30-39.49L23.30-39.49L23.30-39.49Q20.93-39.49 19.01-37.76L19.01-37.76L19.01-37.76Q16.96-35.97 16.96-33.15L16.96-33.15L16.96-33.15Q16.96-31.36 18.21-29.98L18.21-29.98L18.21-29.98Q19.46-28.61 21.38-27.33L21.38-27.33L21.38-27.33Q23.30-26.05 25.47-24.77L25.47-24.77L25.47-24.77Q27.65-23.49 29.57-21.95L29.57-21.95L29.57-21.95Q33.98-18.43 33.98-13.70L33.98-13.70L33.98-13.70Q33.98-10.50 32.29-7.78L32.29-7.78L32.29-7.78Q30.59-5.06 27.78-3.07L27.78-3.07L27.78-3.07Q21.63 1.28 13.50 1.28L13.50 1.28L13.50 1.28Q6.91 1.28 3.52-0.86L3.52-0.86L3.52-0.86Q0.13-3.01 0.13-6.27L0.13-6.27L0.13-6.27Q0.13-12.10 4.67-13.57L4.67-13.57L4.67-13.57Q5.95-14.02 7.90-14.02L7.90-14.02L7.90-14.02Q9.86-14.02 12.10-13.18L12.10-13.18L12.10-13.18Q11.07-10.56 11.07-8.19L11.07-8.19L11.07-8.19Q11.07-3.07 14.72-3.07L14.72-3.07L14.72-3.07Q17.09-3.07 19.04-4.80L19.04-4.80L19.04-4.80Q20.99-6.53 20.99-8.48L20.99-8.48L20.99-8.48Q20.99-10.43 19.74-11.84L19.74-11.84L19.74-11.84Q18.50-13.25 16.64-14.37L16.64-14.37L16.64-14.37Q14.78-15.49 12.64-16.58L12.64-16.58L12.64-16.58Q10.50-17.66 8.64-19.20L8.64-19.20L8.64-19.20Q4.29-22.72 4.29-28.35L4.29-28.35L4.29-28.35Q4.29-32 6.08-34.85L6.08-34.85L6.08-34.85Q7.87-37.70 10.75-39.62L10.75-39.62L10.75-39.62Q16.51-43.52 23.58-43.52L23.58-43.52L23.58-43.52Q30.66-43.52 34.08-41.41L34.08-41.41L34.08-41.41Q37.50-39.30 37.50-35.71L37.50-35.71L37.50-35.71Q37.50-32.58 35.07-30.59L35.07-30.59L35.07-30.59Q32.96-28.93 30.40-28.93L30.40-28.93L30.40-28.93Q27.84-28.93 26.05-29.57ZM68.67-4.38L68.67-4.38L68.67-4.38Q65.98-1.66 62.30-0.19L62.30-0.19L62.30-0.19Q58.62 1.28 54.98 1.28L54.98 1.28L54.98 1.28Q51.33 1.28 50.05 0.64L50.05 0.64L48.06 11.52L35.07 12.80L43.90-32.64L54.34-33.73L53.50-29.31L53.50-29.31Q56.19-33.86 61.76-33.86L61.76-33.86L61.76-33.86Q68.03-33.86 71.36-29.82L71.36-29.82L71.36-29.82Q74.30-26.18 74.30-20.61L74.30-20.61L74.30-20.61Q74.30-15.04 72.83-11.07L72.83-11.07L72.83-11.07Q71.36-7.10 68.67-4.38ZM54.21-22.34L50.82-3.58L50.82-3.58Q52.16-2.43 53.82-2.43L53.82-2.43L53.82-2.43Q55.49-2.43 56.45-3.07L56.45-3.07L56.45-3.07Q57.41-3.71 58.11-4.99L58.11-4.99L58.11-4.99Q60.03-8.45 61.57-18.94L61.57-18.94L61.57-18.94Q62.02-22.02 62.02-25.02L62.02-25.02L62.02-25.02Q62.02-28.03 61.34-28.99L61.34-28.99L61.34-28.99Q60.67-29.95 59.39-29.95L59.39-29.95L59.39-29.95Q55.49-29.95 54.21-22.34L54.21-22.34ZM93.44-3.52L93.44-3.52L93.44-3.52Q91.46 1.28 85.12 1.28L85.12 1.28L85.12 1.28Q81.92 1.28 79.87-0.96L79.87-0.96L79.87-0.96Q78.21-2.82 78.21-4.93L78.21-4.93L78.21-4.93Q78.21-9.73 80.45-20.22L80.45-20.22L85.12-44.80L98.11-46.08L91.90-13.70L91.90-13.70Q90.82-8.96 90.82-7.30L90.82-7.30L90.82-7.30Q90.82-3.65 93.44-3.52ZM124.80-10.82L124.80-10.82L124.80-10.82Q126.40-9.73 126.40-7.33L126.40-7.33L126.40-7.33Q126.40-4.93 125.18-3.39L125.18-3.39L125.18-3.39Q123.97-1.86 121.98-0.83L121.98-0.83L121.98-0.83Q117.89 1.28 113.47 1.28L113.47 1.28L113.47 1.28Q109.06 1.28 106.46 0.32L106.46 0.32L106.46 0.32Q103.87-0.64 102.14-2.43L102.14-2.43L102.14-2.43Q98.75-5.82 98.75-12.03L98.75-12.03L98.75-12.03Q98.75-21.70 104-27.58L104-27.58L104-27.58Q109.63-33.92 119.42-33.92L119.42-33.92L119.42-33.92Q125.50-33.92 128.51-31.36L128.51-31.36L128.51-31.36Q130.75-29.44 130.75-26.30L130.75-26.30L130.75-26.30Q130.75-15.04 111.30-15.04L111.30-15.04L111.30-15.04Q111.04-13.38 111.04-11.97L111.04-11.97L111.04-11.97Q111.04-9.02 112.35-7.90L112.35-7.90L112.35-7.90Q113.66-6.78 116.10-6.78L116.10-6.78L116.10-6.78Q118.53-6.78 121.12-7.90L121.12-7.90L121.12-7.90Q123.71-9.02 124.80-10.82ZM111.74-17.79L111.74-17.79L111.74-17.79Q116.29-17.79 118.91-20.61L118.91-20.61L118.91-20.61Q121.54-23.30 121.54-27.58L121.54-27.58L121.54-27.58Q121.54-29.06 120.99-29.86L120.99-29.86L120.99-29.86Q120.45-30.66 119.36-30.66L119.36-30.66L119.36-30.66Q118.27-30.66 117.34-30.24L117.34-30.24L117.34-30.24Q116.42-29.82 115.46-28.42L115.46-28.42L115.46-28.42Q113.09-25.22 111.74-17.79ZM158.85-10.82L158.85-10.82L158.85-10.82Q160.45-9.73 160.45-7.33L160.45-7.33L160.45-7.33Q160.45-4.93 159.23-3.39L159.23-3.39L159.23-3.39Q158.02-1.86 156.03-0.83L156.03-0.83L156.03-0.83Q151.94 1.28 147.52 1.28L147.52 1.28L147.52 1.28Q143.10 1.28 140.51 0.32L140.51 0.32L140.51 0.32Q137.92-0.64 136.19-2.43L136.19-2.43L136.19-2.43Q132.80-5.82 132.80-12.03L132.80-12.03L132.80-12.03Q132.80-21.70 138.05-27.58L138.05-27.58L138.05-27.58Q143.68-33.92 153.47-33.92L153.47-33.92L153.47-33.92Q159.55-33.92 162.56-31.36L162.56-31.36L162.56-31.36Q164.80-29.44 164.80-26.30L164.80-26.30L164.80-26.30Q164.80-15.04 145.34-15.04L145.34-15.04L145.34-15.04Q145.09-13.38 145.09-11.97L145.09-11.97L145.09-11.97Q145.09-9.02 146.40-7.90L146.40-7.90L146.40-7.90Q147.71-6.78 150.14-6.78L150.14-6.78L150.14-6.78Q152.58-6.78 155.17-7.90L155.17-7.90L155.17-7.90Q157.76-9.02 158.85-10.82ZM145.79-17.79L145.79-17.79L145.79-17.79Q150.34-17.79 152.96-20.61L152.96-20.61L152.96-20.61Q155.58-23.30 155.58-27.58L155.58-27.58L155.58-27.58Q155.58-29.06 155.04-29.86L155.04-29.86L155.04-29.86Q154.50-30.66 153.41-30.66L153.41-30.66L153.41-30.66Q152.32-30.66 151.39-30.24L151.39-30.24L151.39-30.24Q150.46-29.82 149.50-28.42L149.50-28.42L149.50-28.42Q147.14-25.22 145.79-17.79ZM168-6.40L168-6.40L168-6.40Q168-8.13 168.90-12.48L168.90-12.48L172.29-29.76L168.51-29.76L168.77-31.68L168.77-31.68Q176.45-33.98 183.87-39.62L183.87-39.62L186.94-39.62L185.41-32.64L190.40-32.64L189.82-29.76L184.90-29.76L181.63-12.48L181.63-12.48Q180.80-8.51 180.80-7.17L180.80-7.17L180.80-7.17Q180.80-4.10 183.49-3.46L183.49-3.46L183.49-3.46Q182.85-1.28 180.54 0L180.54 0L180.54 0Q178.24 1.28 174.98 1.28L174.98 1.28L174.98 1.28Q171.71 1.28 169.86-0.77L169.86-0.77L169.86-0.77Q168-2.82 168-6.40ZM215.74-10.82L215.74-10.82L215.74-10.82Q217.34-9.73 217.34-7.33L217.34-7.33L217.34-7.33Q217.34-4.93 216.13-3.39L216.13-3.39L216.13-3.39Q214.91-1.86 212.93-0.83L212.93-0.83L212.93-0.83Q208.83 1.28 204.42 1.28L204.42 1.28L204.42 1.28Q200.00 1.28 197.41 0.32L197.41 0.32L197.41 0.32Q194.82-0.64 193.09-2.43L193.09-2.43L193.09-2.43Q189.70-5.82 189.70-12.03L189.70-12.03L189.70-12.03Q189.70-21.70 194.94-27.58L194.94-27.58L194.94-27.58Q200.58-33.92 210.37-33.92L210.37-33.92L210.37-33.92Q216.45-33.92 219.46-31.36L219.46-31.36L219.46-31.36Q221.70-29.44 221.70-26.30L221.70-26.30L221.70-26.30Q221.70-15.04 202.24-15.04L202.24-15.04L202.24-15.04Q201.98-13.38 201.98-11.97L201.98-11.97L201.98-11.97Q201.98-9.02 203.30-7.90L203.30-7.90L203.30-7.90Q204.61-6.78 207.04-6.78L207.04-6.78L207.04-6.78Q209.47-6.78 212.06-7.90L212.06-7.90L212.06-7.90Q214.66-9.02 215.74-10.82ZM202.69-17.79L202.69-17.79L202.69-17.79Q207.23-17.79 209.86-20.61L209.86-20.61L209.86-20.61Q212.48-23.30 212.48-27.58L212.48-27.58L212.48-27.58Q212.48-29.06 211.94-29.86L211.94-29.86L211.94-29.86Q211.39-30.66 210.30-30.66L210.30-30.66L210.30-30.66Q209.22-30.66 208.29-30.24L208.29-30.24L208.29-30.24Q207.36-29.82 206.40-28.42L206.40-28.42L206.40-28.42Q204.03-25.22 202.69-17.79ZM243.90-17.98L243.90-17.98L243.90-17.98Q246.21-22.08 246.21-26.24L246.21-26.24L246.21-26.24Q246.21-28.99 244.22-28.99L244.22-28.99L244.22-28.99Q242.69-28.99 241.09-26.37L241.09-26.37L241.09-26.37Q239.42-23.74 238.91-20.35L238.91-20.35L235.58 0L222.34 1.28L228.86-32.64L239.42-33.92L238.27-27.46L238.27-27.46Q241.41-33.92 248.45-33.92L248.45-33.92L248.45-33.92Q252.16-33.92 254.18-32L254.18-32L254.18-32Q256.19-30.08 256.19-26.14L256.19-26.14L256.19-26.14Q256.19-22.21 253.60-19.71L253.60-19.71L253.60-19.71Q251.01-17.22 246.59-17.22L246.59-17.22L246.59-17.22Q244.67-17.22 243.90-17.98ZM261.12 0L264.83-18.82L264.83-18.82Q262.98-36.16 256.45-39.87L256.45-39.87L256.45-39.87Q257.79-41.54 259.97-42.46L259.97-42.46L259.97-42.46Q262.14-43.39 264.77-43.39L264.77-43.39L264.77-43.39Q267.39-43.39 269.38-42.46L269.38-42.46L269.38-42.46Q271.36-41.54 272.64-39.55L272.64-39.55L272.64-39.55Q275.07-35.78 275.07-26.75L275.07-26.75L275.07-22.14L275.07-22.14Q278.91-33.41 282.75-38.27L282.75-38.27L282.75-38.27Q286.66-43.26 291.52-43.26L291.52-43.26L291.52-43.26Q293.44-43.26 294.72-42.27L294.72-42.27L294.72-42.27Q296.00-41.28 296.64-39.81L296.64-39.81L296.64-39.81Q291.71-37.63 286.98-31.36L286.98-31.36L286.98-31.36Q282.24-25.09 279.17-16.32L279.17-16.32L275.39 0L261.12 0ZM315.97-10.82L315.97-10.82L315.97-10.82Q317.57-9.73 317.57-7.33L317.57-7.33L317.57-7.33Q317.57-4.93 316.35-3.39L316.35-3.39L316.35-3.39Q315.14-1.86 313.15-0.83L313.15-0.83L313.15-0.83Q309.06 1.28 304.64 1.28L304.64 1.28L304.64 1.28Q300.22 1.28 297.63 0.32L297.63 0.32L297.63 0.32Q295.04-0.64 293.31-2.43L293.31-2.43L293.31-2.43Q289.92-5.82 289.92-12.03L289.92-12.03L289.92-12.03Q289.92-21.70 295.17-27.58L295.17-27.58L295.17-27.58Q300.80-33.92 310.59-33.92L310.59-33.92L310.59-33.92Q316.67-33.92 319.68-31.36L319.68-31.36L319.68-31.36Q321.92-29.44 321.92-26.30L321.92-26.30L321.92-26.30Q321.92-15.04 302.46-15.04L302.46-15.04L302.46-15.04Q302.21-13.38 302.21-11.97L302.21-11.97L302.21-11.97Q302.21-9.02 303.52-7.90L303.52-7.90L303.52-7.90Q304.83-6.78 307.26-6.78L307.26-6.78L307.26-6.78Q309.70-6.78 312.29-7.90L312.29-7.90L312.29-7.90Q314.88-9.02 315.97-10.82ZM302.91-17.79L302.91-17.79L302.91-17.79Q307.46-17.79 310.08-20.61L310.08-20.61L310.08-20.61Q312.70-23.30 312.70-27.58L312.70-27.58L312.70-27.58Q312.70-29.06 312.16-29.86L312.16-29.86L312.16-29.86Q311.62-30.66 310.53-30.66L310.53-30.66L310.53-30.66Q309.44-30.66 308.51-30.24L308.51-30.24L308.51-30.24Q307.58-29.82 306.62-28.42L306.62-28.42L306.62-28.42Q304.26-25.22 302.91-17.79ZM350.02-10.82L350.02-10.82L350.02-10.82Q351.62-9.73 351.62-7.33L351.62-7.33L351.62-7.33Q351.62-4.93 350.40-3.39L350.40-3.39L350.40-3.39Q349.18-1.86 347.20-0.83L347.20-0.83L347.20-0.83Q343.10 1.28 338.69 1.28L338.69 1.28L338.69 1.28Q334.27 1.28 331.68 0.32L331.68 0.32L331.68 0.32Q329.09-0.64 327.36-2.43L327.36-2.43L327.36-2.43Q323.97-5.82 323.97-12.03L323.97-12.03L323.97-12.03Q323.97-21.70 329.22-27.58L329.22-27.58L329.22-27.58Q334.85-33.92 344.64-33.92L344.64-33.92L344.64-33.92Q350.72-33.92 353.73-31.36L353.73-31.36L353.73-31.36Q355.97-29.44 355.97-26.30L355.97-26.30L355.97-26.30Q355.97-15.04 336.51-15.04L336.51-15.04L336.51-15.04Q336.26-13.38 336.26-11.97L336.26-11.97L336.26-11.97Q336.26-9.02 337.57-7.90L337.57-7.90L337.57-7.90Q338.88-6.78 341.31-6.78L341.31-6.78L341.31-6.78Q343.74-6.78 346.34-7.90L346.34-7.90L346.34-7.90Q348.93-9.02 350.02-10.82ZM336.96-17.79L336.96-17.79L336.96-17.79Q341.50-17.79 344.13-20.61L344.13-20.61L344.13-20.61Q346.75-23.30 346.75-27.58L346.75-27.58L346.75-27.58Q346.75-29.06 346.21-29.86L346.21-29.86L346.21-29.86Q345.66-30.66 344.58-30.66L344.58-30.66L344.58-30.66Q343.49-30.66 342.56-30.24L342.56-30.24L342.56-30.24Q341.63-29.82 340.67-28.42L340.67-28.42L340.67-28.42Q338.30-25.22 336.96-17.79ZM359.17-6.40L359.17-6.40L359.17-6.40Q359.17-8.13 360.06-12.48L360.06-12.48L363.46-29.76L359.68-29.76L359.94-31.68L359.94-31.68Q367.62-33.98 375.04-39.62L375.04-39.62L378.11-39.62L376.58-32.64L381.57-32.64L380.99-29.76L376.06-29.76L372.80-12.48L372.80-12.48Q371.97-8.51 371.97-7.17L371.97-7.17L371.97-7.17Q371.97-4.10 374.66-3.46L374.66-3.46L374.66-3.46Q374.02-1.28 371.71 0L371.71 0L371.71 0Q369.41 1.28 366.14 1.28L366.14 1.28L366.14 1.28Q362.88 1.28 361.02-0.77L361.02-0.77L361.02-0.77Q359.17-2.82 359.17-6.40ZM406.91-10.82L406.91-10.82L406.91-10.82Q408.51-9.73 408.51-7.33L408.51-7.33L408.51-7.33Q408.51-4.93 407.30-3.39L407.30-3.39L407.30-3.39Q406.08-1.86 404.10-0.83L404.10-0.83L404.10-0.83Q400.00 1.28 395.58 1.28L395.58 1.28L395.58 1.28Q391.17 1.28 388.58 0.32L388.58 0.32L388.58 0.32Q385.98-0.64 384.26-2.43L384.26-2.43L384.26-2.43Q380.86-5.82 380.86-12.03L380.86-12.03L380.86-12.03Q380.86-21.70 386.11-27.58L386.11-27.58L386.11-27.58Q391.74-33.92 401.54-33.92L401.54-33.92L401.54-33.92Q407.62-33.92 410.62-31.36L410.62-31.36L410.62-31.36Q412.86-29.44 412.86-26.30L412.86-26.30L412.86-26.30Q412.86-15.04 393.41-15.04L393.41-15.04L393.41-15.04Q393.15-13.38 393.15-11.97L393.15-11.97L393.15-11.97Q393.15-9.02 394.46-7.90L394.46-7.90L394.46-7.90Q395.78-6.78 398.21-6.78L398.21-6.78L398.21-6.78Q400.64-6.78 403.23-7.90L403.23-7.90L403.23-7.90Q405.82-9.02 406.91-10.82ZM393.86-17.79L393.86-17.79L393.86-17.79Q398.40-17.79 401.02-20.61L401.02-20.61L401.02-20.61Q403.65-23.30 403.65-27.58L403.65-27.58L403.65-27.58Q403.65-29.06 403.10-29.86L403.10-29.86L403.10-29.86Q402.56-30.66 401.47-30.66L401.47-30.66L401.47-30.66Q400.38-30.66 399.46-30.24L399.46-30.24L399.46-30.24Q398.53-29.82 397.57-28.42L397.57-28.42L397.57-28.42Q395.20-25.22 393.86-17.79ZM435.07-17.98L435.07-17.98L435.07-17.98Q437.38-22.08 437.38-26.24L437.38-26.24L437.38-26.24Q437.38-28.99 435.39-28.99L435.39-28.99L435.39-28.99Q433.86-28.99 432.26-26.37L432.26-26.37L432.26-26.37Q430.59-23.74 430.08-20.35L430.08-20.35L426.75 0L413.50 1.28L420.03-32.64L430.59-33.92L429.44-27.46L429.44-27.46Q432.58-33.92 439.62-33.92L439.62-33.92L439.62-33.92Q443.33-33.92 445.34-32L445.34-32L445.34-32Q447.36-30.08 447.36-26.14L447.36-26.14L447.36-26.14Q447.36-22.21 444.77-19.71L444.77-19.71L444.77-19.71Q442.18-17.22 437.76-17.22L437.76-17.22L437.76-17.22Q435.84-17.22 435.07-17.98Z" fill="#444"></path></g></g><style>text {
  font-size: 64px;
  font-family: Arial Black;
  dominant-baseline: central;
  text-anchor: middle;
}</style></svg>